<?xml version="1.0" standalone="no"?>
<!DOCTYPE svg PUBLIC "-//W3C//DTD SVG 20010904//EN"
 "http://www.w3.org/TR/2001/REC-SVG-20010904/DTD/svg10.dtd">
<svg version="1.0" xmlns="http://www.w3.org/2000/svg"
 width="1024.000000pt" height="1024.000000pt" viewBox="0 0 1024.000000 1024.000000"
 preserveAspectRatio="xMidYMid meet">
<metadata>
Created by potrace 1.14, written by Peter Selinger 2001-2017
</metadata>
<g transform="translate(0.000000,1024.000000) scale(0.100000,-0.100000)"
fill="#000000" stroke="none">
<path d="M5633 9134 c-45 -22 -68 -64 -102 -180 -41 -140 -140 -477 -162 -554
-10 -36 -25 -90 -34 -120 -9 -30 -18 -62 -20 -70 -2 -8 -14 -46 -25 -85 -12
-38 -24 -79 -27 -90 -15 -53 -176 -614 -185 -640 -5 -16 -11 -37 -13 -45 -5
-24 -40 -144 -90 -315 -56 -192 -68 -233 -89 -307 -8 -31 -29 -103 -46 -160
-17 -56 -33 -111 -36 -120 -2 -10 -6 -26 -8 -35 -3 -10 -43 -148 -90 -308
-126 -433 -247 -848 -251 -865 -2 -8 -31 -109 -65 -225 -34 -115 -65 -223 -70
-240 -4 -16 -56 -196 -115 -400 -160 -552 -174 -601 -206 -715 -17 -58 -34
-118 -39 -135 -5 -16 -16 -55 -25 -85 -9 -30 -25 -84 -35 -120 -11 -36 -41
-137 -66 -225 -45 -156 -79 -276 -144 -500 -17 -60 -33 -117 -36 -125 -2 -8
-26 -94 -54 -190 -29 -96 -64 -220 -80 -275 -16 -55 -51 -177 -78 -272 -61
-209 -61 -241 -5 -293 35 -33 65 -44 353 -129 173 -51 358 -106 410 -122 194
-59 336 -96 355 -94 95 9 141 55 180 177 15 46 28 90 30 98 2 8 33 119 70 245
84 289 155 535 160 555 3 8 40 139 84 290 44 151 125 430 180 620 55 190 132
455 171 590 40 135 75 259 80 275 9 37 217 758 230 800 9 27 48 160 85 290 86
301 198 689 209 725 14 45 37 126 42 145 1 6 18 64 37 130 20 66 65 221 101
345 35 124 85 295 110 380 24 85 69 241 100 345 30 105 84 294 121 420 37 127
68 237 70 245 2 8 24 85 50 170 25 85 48 162 50 170 2 8 33 119 70 245 98 336
98 334 86 407 0 4 -14 23 -31 41 -34 39 -21 34 -455 162 -332 98 -422 124
-520 155 -96 30 -190 36 -232 14z"/>
<path d="M2523 7435 c-50 -15 -66 -28 -238 -190 -71 -67 -166 -156 -209 -196
-44 -41 -96 -90 -116 -109 -48 -45 -275 -258 -320 -300 -19 -18 -95 -89 -169
-159 -74 -69 -141 -133 -151 -141 -14 -13 -100 -93 -320 -300 -20 -19 -90 -84
-155 -145 -65 -60 -137 -128 -160 -150 -42 -40 -70 -66 -320 -300 -208 -195
-231 -218 -250 -255 -23 -44 -21 -103 4 -143 17 -27 117 -126 281 -277 51 -47
267 -249 310 -290 74 -70 296 -279 330 -310 19 -18 91 -85 160 -150 69 -65
141 -132 160 -150 19 -18 91 -85 160 -150 69 -65 141 -132 160 -150 19 -18 91
-86 160 -150 69 -65 141 -132 160 -150 45 -41 263 -247 360 -339 164 -156 241
-164 358 -36 23 25 74 81 114 123 40 42 132 140 203 216 415 444 401 427 409
491 7 54 -24 104 -110 180 -148 131 -163 144 -310 272 -25 21 -162 143 -178
158 -6 6 -45 39 -86 75 -41 35 -82 71 -91 80 -8 8 -44 40 -79 70 -69 59 -152
132 -160 140 -3 3 -38 35 -79 70 -41 36 -82 72 -91 80 -9 8 -32 29 -51 45 -49
42 -188 164 -227 200 l-34 30 24 18 c13 10 38 32 56 48 43 40 290 257 372 328
35 31 91 80 125 110 65 58 88 78 210 186 44 38 82 72 85 75 3 3 39 34 80 70
64 55 108 95 164 145 6 6 63 55 126 110 235 203 261 234 254 307 -4 46 -23 76
-90 148 -29 30 -62 66 -73 79 -20 22 -221 238 -286 307 -16 17 -77 82 -135
144 -58 62 -123 132 -145 155 -74 78 -126 99 -192 80z"/>
<path d="M7666 7435 c-53 -18 -52 -18 -235 -214 -58 -63 -126 -135 -151 -161
-25 -26 -69 -74 -99 -106 -30 -33 -111 -119 -180 -192 -126 -133 -168 -189
-171 -227 -7 -70 -1 -84 68 -152 37 -38 94 -90 126 -118 70 -60 73 -62 167
-145 91 -81 120 -106 189 -168 30 -27 71 -62 90 -78 19 -16 42 -36 50 -44 8
-9 87 -78 175 -155 88 -76 167 -146 176 -154 9 -9 29 -27 45 -41 98 -85 363
-318 382 -336 l22 -21 -112 -99 c-62 -54 -133 -117 -158 -140 -25 -23 -63 -57
-85 -75 -22 -19 -45 -38 -51 -44 -6 -5 -42 -37 -80 -70 -37 -33 -75 -67 -84
-75 -9 -8 -45 -40 -80 -70 -36 -30 -74 -64 -86 -75 -18 -18 -95 -85 -164 -145
-43 -37 -153 -134 -170 -150 -15 -14 -128 -113 -194 -170 -16 -14 -41 -36 -56
-50 -15 -14 -50 -45 -78 -69 -69 -58 -95 -101 -94 -156 1 -54 20 -84 106 -177
38 -40 116 -124 175 -187 58 -63 124 -133 146 -156 22 -24 83 -89 135 -145
187 -202 236 -248 274 -258 73 -20 127 5 237 110 31 29 113 107 184 173 70 66
152 143 181 170 29 28 79 75 112 105 101 95 302 283 352 330 26 25 96 90 155
145 59 55 126 118 150 140 70 66 288 271 320 301 36 33 276 258 394 370 47 44
100 94 118 110 257 237 297 282 306 339 10 76 -9 101 -283 356 -214 199 -261
243 -314 292 -28 27 -109 103 -181 170 -71 67 -166 156 -210 197 -43 41 -91
86 -106 100 -14 14 -82 77 -150 141 -68 64 -140 131 -160 150 -20 19 -85 79
-144 134 -58 55 -128 120 -154 145 -51 48 -293 276 -347 325 -137 128 -262
244 -286 267 -54 53 -117 72 -172 53z"/>
</g>
</svg>
